@startuml
class Course {
-name: String
-instructor: Instructor
-textbook: Textbook
+getName(): String
+setName(name: String): void
+getInstructor(): Instructor
+setInstructor(instructor: Instructor): void
+getTextbook(): Textbook
+setTextbook(textbook: Textbook): void
+print()
}

class Instructor {
-firstName: String
-lastName: String
-officeNumber: String
+getFirstName(): String
+setFirstName(firstName: String): void
+getLastName(): String
+setLastName(lastName: String): void
+getOfficeNumber(): String
+setOfficeNumber(officeNumber: String): void
}
Instructor o-- Course

class Textbook {
-title: String
-author: String
-publisher: String
+getTitle(): String
+setTitle(title: String): void
+getAuthor(): String
+setAuthor(author: String): void
+getPublisher(): String
+setPublisher(publisher: String): void
}
Textbook o-- Course
@enduml